<svg xmlns="http://www.w3.org/2000/svg" viewBox="0 0 600 340" width="100%" height="100%">
  <defs>
    <linearGradient id="bgGradTrack" x1="0%" y1="0%" x2="100%" y2="100%">
      <stop offset="0%" stop-color="#071222"/>
      <stop offset="100%" stop-color="#0c1b30"/>
    </linearGradient>
  </defs>
  <!-- Background -->
  <rect width="600" height="340" fill="url(#bgGradTrack)"/>
  <rect x="0" y="0" width="600" height="340" fill="none" stroke="#1e293b" stroke-width="1"/>

  <!-- Top Bar -->
  <rect x="24" y="20" width="552" height="28" rx="6" fill="#0f1f38" stroke="#1e3a5f" stroke-width="1"/>
  <circle cx="42" cy="34" r="4" fill="#38bdf8" opacity="0.9"/>
  <text x="56" y="38" fill="#94a3b8" font-family="Inter, sans-serif" font-size="10" font-weight="600" letter-spacing="0.5">SERVER-SIDE TRACKING • FIRST-PARTY DATA PIPELINE</text>
  <rect x="466" y="26" width="94" height="16" rx="4" fill="#0e342c"/>
  <text x="476" y="38" fill="#34d399" font-family="Inter, sans-serif" font-size="9" font-weight="600">GTM SS: SYNCED</text>

  <!-- Metric Badges Row -->
  <g transform="translate(24, 60)">
    <rect x="0" y="0" width="176" height="50" rx="6" fill="#091424" stroke="#1a2d47" stroke-width="1"/>
    <text x="14" y="20" fill="#64748b" font-family="Inter, sans-serif" font-size="9" font-weight="600">EVENT RECOVERY</text>
    <text x="14" y="40" fill="#ffffff" font-family="Inter, sans-serif" font-size="15" font-weight="700">+92.4% <tspan fill="#34d399" font-size="10">UNBLOCKED</tspan></text>

    <rect x="188" y="0" width="176" height="50" rx="6" fill="#091424" stroke="#1a2d47" stroke-width="1"/>
    <text x="202" y="20" fill="#64748b" font-family="Inter, sans-serif" font-size="9" font-weight="600">PAID MEDIA ROAS</text>
    <text x="202" y="40" fill="#ffffff" font-family="Inter, sans-serif" font-size="15" font-weight="700">4.82x <tspan fill="#38bdf8" font-size="10">+18%</tspan></text>

    <rect x="376" y="0" width="176" height="50" rx="6" fill="#091424" stroke="#1a2d47" stroke-width="1"/>
    <text x="390" y="20" fill="#64748b" font-family="Inter, sans-serif" font-size="9" font-weight="600">DATA DELAY SLA</text>
    <text x="390" y="40" fill="#ffffff" font-family="Inter, sans-serif" font-size="15" font-weight="700">62 ms <tspan fill="#38bdf8" font-size="10">STREAM</tspan></text>
  </g>

  <!-- Main Architecture Area -->
  <rect x="24" y="122" width="552" height="196" rx="8" fill="#091424" stroke="#1a2d47" stroke-width="1"/>

  <!-- Left: Client Stream -->
  <g transform="translate(44, 142)">
    <rect x="0" y="0" width="130" height="74" rx="8" fill="#0e2038" stroke="#1e3a5f" stroke-width="1.5"/>
    <text x="14" y="22" fill="#94a3b8" font-family="Inter, sans-serif" font-size="9" font-weight="600">WEB &amp; APP CLIENTS</text>
    <text x="14" y="42" fill="#ffffff" font-family="Inter, sans-serif" font-size="13" font-weight="700">1st-Party Domain</text>
    <text x="14" y="60" fill="#38bdf8" font-family="monospace" font-size="10">data.domain.com</text>

    <path d="M 130 37 L 175 37" stroke="#38bdf8" stroke-width="2" stroke-dasharray="3 3"/>

    <!-- Middle: GTM Server Container -->
    <rect x="175" y="0" width="160" height="74" rx="8" fill="#132744" stroke="#2563eb" stroke-width="1.5"/>
    <text x="189" y="22" fill="#60a5fa" font-family="Inter, sans-serif" font-size="9" font-weight="600">GCP CLOUD RUN</text>
    <text x="189" y="42" fill="#ffffff" font-family="Inter, sans-serif" font-size="13" font-weight="700">GTM Server-Side</text>
    <text x="189" y="60" fill="#94a3b8" font-family="Inter, sans-serif" font-size="10">Sanitize &amp; Hash PII</text>

    <!-- Splits -->
    <path d="M 335 24 L 375 14" stroke="#22d3ee" stroke-width="2"/>
    <path d="M 335 50 L 375 60" stroke="#38bdf8" stroke-width="2"/>

    <!-- Right Destination 1: BigQuery -->
    <rect x="375" y="-6" width="140" height="38" rx="6" fill="#0f2b48" stroke="#1e40af" stroke-width="1.2"/>
    <text x="387" y="14" fill="#93c5fd" font-family="Inter, sans-serif" font-size="9" font-weight="600">BIGQUERY WAREHOUSE</text>
    <text x="387" y="27" fill="#ffffff" font-family="monospace" font-size="10">raw_events_stream</text>

    <!-- Right Destination 2: Ad Platforms API -->
    <rect x="375" y="42" width="140" height="38" rx="6" fill="#0f2b48" stroke="#1e40af" stroke-width="1.2"/>
    <text x="387" y="58" fill="#93c5fd" font-family="Inter, sans-serif" font-size="9" font-weight="600">CONVERSIONS API</text>
    <text x="387" y="71" fill="#ffffff" font-family="monospace" font-size="10">CAPI / GA4 Server</text>
  </g>

  <!-- Realtime Event stream ticker at bottom -->
  <g transform="translate(44, 252)">
    <rect x="0" y="0" width="512" height="48" rx="6" fill="#070f1a" stroke="#1e2d42" stroke-width="1"/>
    <circle cx="20" cy="24" r="5" fill="#22c55e"/>
    <text x="34" y="22" fill="#e2e8f0" font-family="monospace" font-size="10">POST /mp/collect • event: purchase • value: R$ 429.00</text>
    <text x="34" y="38" fill="#64748b" font-family="monospace" font-size="9">attribution: verified • server_timestamp: 1726059281 • latency: 48ms</text>
    <text x="440" y="30" fill="#38bdf8" font-family="Inter, sans-serif" font-size="10" font-weight="700">100% VALID</text>
  </g>
</svg>
